<?xml version="1.0" encoding="UTF-8" standalone="no"?>
<!DOCTYPE svg PUBLIC "-//W3C//DTD SVG 1.1//EN" "http://www.w3.org/Graphics/SVG/1.1/DTD/svg11.dtd">
<svg width="100%" height="100%" viewBox="0 0 24 24" version="1.1" xmlns="http://www.w3.org/2000/svg" xmlns:xlink="http://www.w3.org/1999/xlink" xml:space="preserve" xmlns:serif="http://www.serif.com/" style="fill-rule:evenodd;clip-rule:evenodd;stroke-linejoin:round;stroke-miterlimit:2;">
    <g transform="matrix(1.19859,0,0,1.19859,-2.38729,-2.38729)">
        <path d="M4,2L20,2C21.105,2 22,2.895 22,4L22,20C22,21.105 21.105,22 20,22L4,22C2.895,22 2,21.105 2,20L2,4C2,2.895 2.895,2 4,2ZM4,4L4,20L20,20L20,4L4,4ZM13,12.004L11.133,12.004L11.133,10.004L13,10.004L13,9C13,7.343 14.343,6 16,6L17,6L17,8L16,8C15.448,8 15,8.448 15,9L15,10.004L16.982,10.004L16.982,12.004L15,12.004L15,18L13,18L13,12.004Z"/>
    </g>
</svg>
