<?xml version="1.0" encoding="UTF-8" standalone="no"?>
<!DOCTYPE svg PUBLIC "-//W3C//DTD SVG 1.1//EN" "http://www.w3.org/Graphics/SVG/1.1/DTD/svg11.dtd">
<svg width="100%" height="100%" viewBox="0 0 1100 1100" version="1.1" xmlns="http://www.w3.org/2000/svg" xmlns:xlink="http://www.w3.org/1999/xlink" xml:space="preserve" xmlns:serif="http://www.serif.com/" style="fill-rule:evenodd;clip-rule:evenodd;stroke-linecap:round;stroke-linejoin:round;stroke-miterlimit:1.5;">
    <g transform="matrix(-0.798658,1.04196,-1.24229,-0.952207,2038.73,829.659)">
        <path d="M530,935C522.059,934.232 511.35,927.569 508.997,926.402C492.361,918.151 476.654,891.318 475,888C484.455,883.057 514.961,889.886 528,898C528,898 539.645,905.361 546.046,915.006C547.724,917.534 550.56,925.943 550,928C548.666,932.896 514.269,910.228 516,912C522.145,918.291 545.648,930.097 547.568,932.979C548.776,934.791 532.499,935.242 530,935Z" style="fill:rgb(89,153,30);stroke:white;stroke-width:0.42px;"/>
    </g>
    <g transform="matrix(1,0,0,1,-270.994,-679.816)">
        <path d="M530,935C522.059,934.232 511.35,927.569 508.997,926.402C492.361,918.151 476.654,891.318 475,888C484.455,883.057 514.961,889.886 528,898C528,898 539.645,905.361 546.046,915.006C547.724,917.534 550.56,925.943 550,928C548.666,932.896 514.269,910.228 516,912C522.145,918.291 545.648,930.097 547.568,932.979C548.776,934.791 532.499,935.242 530,935Z" style="fill:rgb(89,153,30);stroke:white;stroke-width:0.61px;"/>
    </g>
    <g transform="matrix(0.0311473,0.999515,-0.999515,0.0311473,1262.83,-336.775)">
        <path d="M530,935C522.059,934.232 511.35,927.569 508.997,926.402C492.361,918.151 476.654,891.318 475,888C484.455,883.057 514.961,889.886 528,898C528,898 539.645,905.361 546.046,915.006C547.724,917.534 550.56,925.943 550,928C548.666,932.896 514.269,910.228 516,912C522.145,918.291 545.648,930.097 547.568,932.979C548.776,934.791 532.499,935.242 530,935Z" style="fill:rgb(89,153,30);stroke:white;stroke-width:0.61px;"/>
    </g>
    <g transform="matrix(0.159759,0.987156,-1.35779,0.219742,1645.2,-484.537)">
        <path d="M530,935C522.059,934.232 511.35,927.569 508.997,926.402C492.361,918.151 476.654,891.318 475,888C484.455,883.057 514.961,889.886 528,898C528,898 539.645,905.361 546.046,915.006C547.724,917.534 550.56,925.943 550,928C548.666,932.896 514.269,910.228 516,912C522.145,918.291 545.648,930.097 547.568,932.979C548.776,934.791 532.499,935.242 530,935Z" style="fill:rgb(89,153,30);stroke:white;stroke-width:0.51px;"/>
    </g>
    <g transform="matrix(1.23158,0.160106,-0.134942,1.03801,-191.795,-581.335)">
        <path d="M530,935C522.059,934.232 511.35,927.569 508.997,926.402C492.361,918.151 476.654,891.318 475,888C484.455,883.057 514.961,889.886 528,898C528,898 539.645,905.361 546.046,915.006C547.724,917.534 550.56,925.943 550,928C548.666,932.896 514.269,910.228 516,912C522.145,918.291 545.648,930.097 547.568,932.979C548.776,934.791 532.499,935.242 530,935Z" style="fill:rgb(89,153,30);stroke:white;stroke-width:0.53px;"/>
    </g>
    <g transform="matrix(-0.0670108,0.939686,-0.893647,-0.0637277,1310.23,34.9478)">
        <path d="M530,935C522.059,934.232 511.35,927.569 508.997,926.402C492.361,918.151 476.654,891.318 475,888C484.455,883.057 514.961,889.886 528,898C528,898 539.645,905.361 546.046,915.006C547.724,917.534 550.56,925.943 550,928C548.666,932.896 514.269,910.228 516,912C522.145,918.291 545.648,930.097 547.568,932.979C548.776,934.791 532.499,935.242 530,935Z" style="fill:rgb(89,153,30);stroke:white;stroke-width:0.66px;"/>
    </g>
    <g transform="matrix(-0.517676,0.504921,-0.808071,-0.828485,1496.78,775.741)">
        <path d="M530,935C522.059,934.232 511.35,927.569 508.997,926.402C492.361,918.151 476.654,891.318 475,888C484.455,883.057 514.961,889.886 528,898C528,898 539.645,905.361 546.046,915.006C547.724,917.534 550.56,925.943 550,928C548.666,932.896 514.269,910.228 516,912C522.145,918.291 545.648,930.097 547.568,932.979C548.776,934.791 532.499,935.242 530,935Z" style="fill:rgb(89,153,30);stroke:white;stroke-width:0.63px;"/>
    </g>
    <g transform="matrix(0.550026,-0.50446,0.65469,0.713825,-619.089,-112.644)">
        <path d="M530,935C522.059,934.232 511.35,927.569 508.997,926.402C492.361,918.151 476.654,891.318 475,888C484.455,883.057 514.961,889.886 528,898C528,898 539.645,905.361 546.046,915.006C547.724,917.534 550.56,925.943 550,928C548.666,932.896 514.269,910.228 516,912C522.145,918.291 545.648,930.097 547.568,932.979C548.776,934.791 532.499,935.242 530,935Z" style="fill:rgb(104,166,50);stroke:white;stroke-width:0.71px;"/>
    </g>
    <g transform="matrix(1.32375,0,0,1.32879,-539.956,-1140.68)">
        <path d="M1025,1431C1082.43,1432.34 1095.43,1428.51 1151,1427C1137.77,1463.8 1069.94,1675.65 813,1666C967.199,1657.36 1034.27,1492.98 1025,1431Z"/>
        <path d="M1025,1431C1030.27,1466.41 1010.59,1535.23 963.992,1589.32C949.243,1606.44 931.799,1622.09 911.591,1634.73C883.948,1652.02 851.137,1663.69 812.99,1665.82C812.892,1665.82 812.816,1665.9 812.817,1666C812.817,1666.1 812.895,1666.18 812.993,1666.18C864.447,1668.12 908.323,1661.18 945.695,1648.54C976.358,1638.17 1002.64,1623.95 1025.14,1607.66C1112.23,1544.6 1142.66,1450.42 1151.07,1427.02C1151.07,1427 1151.07,1426.98 1151.06,1426.96C1151.04,1426.94 1151.02,1426.93 1151,1426.93C1116.26,1427.89 1098.16,1429.76 1075.43,1430.7C1061.81,1431.26 1046.53,1431.49 1025,1431L1025,1431ZM1025,1431C1046.53,1431.52 1061.81,1431.3 1075.43,1430.75C1098.14,1429.84 1116.23,1428 1150.9,1427.07C1142.43,1450.61 1111.89,1544.51 1024.94,1607.37C1002.45,1623.63 976.194,1637.81 945.568,1648.17C909.138,1660.49 866.528,1667.4 816.73,1665.94C853.358,1663.26 884.985,1651.77 911.759,1634.99C931.983,1622.32 949.44,1606.65 964.188,1589.49C1010.74,1535.32 1030.33,1466.42 1025,1431L1025,1431Z"/>
    </g>
    <g transform="matrix(1.32375,0,0,1.32879,-591.582,-1128.72)">
        <path d="M530,1414C530.011,1414.03 568.952,1510.8 655.051,1584.31C704.633,1626.65 769.701,1661.07 851.659,1665.9C947.987,1671.62 1020,1644.8 1072.98,1607.11C1176.45,1533.49 1207.3,1418.2 1207.3,1418.2C1208.61,1413.18 1207.51,1407.83 1204.32,1403.73C1201.13,1399.63 1196.21,1397.22 1191,1397.22C1191,1397.22 1110.62,1396.24 1005.92,1396.33C980.634,1396.35 953.927,1396.26 926.6,1396.84C887.414,1397.67 847.042,1399.51 807.62,1401.14C661.586,1407.16 530.037,1414 530,1414L530,1414ZM530,1414C530.037,1414 661.586,1420.84 807.62,1426.86C847.041,1428.49 887.414,1430.33 926.6,1431.16C953.927,1431.74 980.634,1431.65 1005.92,1431.67C1076.76,1431.73 1136.46,1431.3 1167.67,1431.02C1160.89,1449.03 1148.73,1476.6 1129.15,1506.08C1111.49,1532.67 1087.98,1560.92 1056.58,1585.06C1008.48,1622.05 942.407,1649.6 852.341,1648.1C773.588,1646.76 709.962,1616.02 660.722,1577.43C572.455,1508.27 530.012,1414.03 530,1414L530,1414Z"/>
    </g>
    <g transform="matrix(1.05448,0,0,1.06552,-303.426,-782.727)">
        <path d="M840.263,806.333C821.571,822.329 816.721,838.789 816.349,856.108C815.812,881.078 825.048,907.727 822.792,939.515C822.11,949.13 821.418,959.468 817.239,970.666C808.148,997.629 805.588,1019.72 806.903,1038.82C808.238,1058.22 813.05,1074.03 817.794,1088.11C823.729,1105.72 829.29,1120.05 826,1135C836.489,1110.03 820.193,1081.86 824.409,1039.07C826.058,1022.33 831.177,1003.51 842.761,981.334C848.266,970.209 851.741,959.622 853.147,949.374C853.826,944.426 854.006,939.557 853.678,934.837C852.102,912.15 842.588,893.225 836.045,874.895C831.725,862.795 828.42,851.319 829.979,839.29C831.214,829.764 835.182,820.09 843.737,809.667C844.667,808.718 844.643,807.201 843.684,806.281C842.726,805.361 841.193,805.384 840.263,806.333Z" style="fill:rgb(227,201,62);"/>
    </g>
    <g transform="matrix(1.05448,0,0,1.06552,-311.862,-761.417)">
        <path d="M936,1384C942.488,1371.54 957.213,1344.2 973.392,1312.7C985.544,1289.04 998.521,1263.62 1009.36,1240.72C1010.87,1237.53 1012.37,1234.42 1013.62,1231.3C1014.95,1228.01 1016.05,1224.73 1017.07,1221.55C1024.56,1198.15 1028.88,1180 1029.9,1173.69C1030.9,1168.09 1033.44,1155.77 1037.43,1140.26C1043.38,1117.17 1052.05,1087.3 1055.82,1060.27C1058.67,1039.75 1059.03,1020.87 1054.81,1007.57C1050.28,992.793 1039.85,982.628 1029.01,971.973C1023.07,966.13 1017.17,960 1012.13,952.897C1007.76,946.724 1004.6,939.572 1002.94,930.843C1001.02,921.004 1001.72,913.45 1003.11,907.021C1004.54,900.419 1007.45,895.225 1009.77,889.989C1013.34,881.954 1016.21,874.069 1017.17,865.144C1018.14,852.974 1015.23,843.98 1008.12,836.115C999.848,826.956 985.315,819.573 969.495,805.107C956.985,793.844 949.98,785.681 946.273,778.955C940.896,769.201 942.567,763.363 943.095,757.559C943.406,755.868 942.273,754.246 940.565,753.938C938.857,753.629 937.217,754.751 936.905,756.441C934.952,763.393 931.991,770.144 936.336,783.213C939.057,791.396 944.975,801.924 956.505,816.893C967.047,830.365 977.568,839.052 984.706,847.307C988.278,851.437 990.127,855.315 988.833,860.856C987.574,867.061 984.207,872.033 981.661,877.684C978.326,885.085 975.492,893.066 974.527,902.587C973.557,912.16 974.235,923.294 979.061,937.157C981.764,944.807 985.246,951.304 989.351,957.129C1004.88,979.165 1030.63,988.482 1039.19,1012.43C1043.91,1027.34 1041.6,1050.25 1036.89,1073.88C1032.19,1097.43 1025.51,1121.82 1019.09,1140.01C1014.38,1153.35 1009.78,1163.32 1008.1,1168.31C1006.13,1174.01 997.926,1189.61 988.375,1210.74C987.009,1213.76 985.632,1216.9 984.401,1220.19C983.227,1223.33 982.238,1226.6 981.197,1229.94C973.678,1254.05 965.695,1281.34 958.204,1306.75C948.207,1340.67 939.835,1370.51 936,1384Z" style="fill:rgb(227,201,62);"/>
    </g>
    <g transform="matrix(1.05448,0,0,1.06552,-311.862,-761.417)">
        <path d="M876.255,1398.87C898.487,1351.13 912.417,1309.64 918.574,1269.55C920.358,1257.93 921.33,1246.45 921.776,1235.01C922.892,1206.39 920.396,1178.06 914.141,1148.54C908.607,1122.42 899.821,1095.48 888.955,1066.36C884.596,1055.02 885.532,1044.56 888.673,1034.47C893.21,1019.91 901.918,1006.05 909.331,991.811C918.445,974.308 925.727,956.312 925.561,936.974C925.473,931.087 923.82,924.873 920.314,918.663C917.273,913.277 913.503,907.077 907.804,902.027C902.088,896.961 894.809,894.332 888.719,889.04C883.339,884.366 879.192,878.642 875.927,873.071C871.398,865.343 869.196,857.244 873.411,848.444C883.227,828.009 890.514,816.51 893.869,805.544C896.716,796.239 896.846,787.414 893,774C895.137,787.248 894.205,795.705 890.353,804.247C885.692,814.581 876.912,824.827 864.589,843.556C856.795,855.373 857.994,867.415 862.967,879.39C865.863,886.364 871.021,892.76 875.166,899.97C879.17,906.937 881.035,914.207 884.981,920.713C887.32,924.57 890.173,927.789 892.107,931.123C893.33,933.23 894.464,935.108 894.439,937.026C894.366,951.355 887.997,964.355 881.123,977.261C872.666,993.138 863.155,1008.79 858.04,1025.1C852.829,1041.71 851.835,1058.97 859.045,1077.64C869.975,1105.14 878.317,1130.73 884.71,1155.34C891.764,1182.48 896.342,1208.42 897.399,1235.02C897.824,1245.72 897.758,1256.48 897.244,1267.46C895.401,1306.83 887.473,1348.47 871.745,1397.13C871.261,1398.36 871.879,1399.75 873.123,1400.23C874.368,1400.71 875.772,1400.1 876.255,1398.87Z" style="fill:rgb(227,201,62);"/>
    </g>
    <g transform="matrix(1,0,0,1,-270.994,-679.816)">
        <path d="M644,1150C643.433,1148.83 635.041,1137.21 637.393,1135.61C642.896,1131.88 659.244,1124.69 666,1126C669.832,1126.74 668.47,1137.35 670.85,1143.35C687.915,1186.39 740.437,1364.15 747,1384C755.949,1411.06 741,1403 741,1403C713.116,1332.18 696.825,1259.06 644,1150Z" style="fill:rgb(1,0,0);stroke:rgb(255,242,243);stroke-width:3.05px;"/>
    </g>
    <g transform="matrix(0.948068,-0.0904346,0.0922206,0.966791,-316.549,-580.773)">
        <path d="M640.153,1220.15C640.469,1216.16 638.485,1205.17 643.624,1204.99C649.339,1204.78 671.141,1208.1 671,1210C670.85,1212.02 668.669,1219.16 667.369,1222.34C664.722,1228.82 662.268,1240.59 661,1245C657.245,1258.08 628.316,1388.71 626.782,1406.02C625.608,1419.28 611.138,1408.88 613.294,1406.05C616.085,1402.39 620.952,1371.48 627.1,1314.05C627.887,1306.69 638.673,1238.88 640.153,1220.15Z" style="fill:rgb(1,0,0);stroke:rgb(255,242,243);stroke-width:3.17px;"/>
    </g>
    <g transform="matrix(1,0,0,1,-270.994,-679.816)">
        <path d="M577,957C575.186,951.327 617.388,935.956 620,942C621.083,944.506 624.291,952.719 624.968,959.157C626.229,971.148 628.928,988.187 631.973,1000.95C647.311,1065.25 657.008,1093.85 664,1116C666.873,1125.1 633.032,1139.86 635,1130C635.71,1126.44 619.627,1067.88 602.661,1022.07C598.221,1010.08 588.865,983.218 582.083,967.941C580.367,964.077 577.944,959.954 577,957Z" style="fill:rgb(1,0,0);stroke:rgb(255,242,243);stroke-width:3.05px;"/>
    </g>
    <g transform="matrix(0.999935,0.0114224,-0.0103915,0.90969,-262.392,-600.732)">
        <path d="M496,724C530.302,787.952 534.843,812.171 556,876.025C574.616,932.209 569.899,936.739 574.011,945.074C577.942,953.043 617.723,935.512 618,932C618.509,925.54 609.869,915.484 604.213,902.381C591.313,872.492 574.222,821.291 559.179,774.706C551.678,751.475 543.178,725.882 541.023,712.161C540.595,709.44 540.467,698.805 537.448,697.755C526.375,693.901 500.117,702.573 493.611,712.494C491.516,715.688 494.019,720.306 496,724Z" style="fill:rgb(1,0,0);stroke:rgb(255,242,243);stroke-width:3.19px;"/>
    </g>
    <g id="Layer1" transform="matrix(1,0,0,1,-284,-644)">
        <g transform="matrix(0.856964,-0.0670433,0.0640357,0.81852,46.3361,178.44)">
            <path d="M714,661C702.563,668.631 710.137,673.087 711,697C712.671,743.292 707.843,794.791 704,824C700.169,853.121 694.303,898.267 689,921C685.794,934.744 679.921,944.484 685,946C704.213,951.736 727.905,957.158 731.654,954.027C735.836,950.533 733.369,940.502 733.32,928.19C733.266,914.886 741.794,856.057 744,825C746.206,793.943 755.876,712.508 767,690C785.007,653.564 722.378,655.409 714,661Z" style="fill:rgb(1,0,0);stroke:rgb(255,242,243);stroke-width:3.63px;"/>
        </g>
        <g transform="matrix(0.989708,-0.143104,0.143104,0.989708,-121.833,68.7763)">
            <path d="M669,1071C673.682,1047.82 676.164,1002.87 681.303,977.1C682.599,970.601 679.746,958.001 683.99,951.874C684.843,950.644 724.768,956.475 726.877,961.704C728.232,965.062 723.47,971.2 722.498,975.239C718.594,991.46 712.806,1007.61 710,1023C705.99,1045 695.644,1083.41 691,1108C684.197,1144.03 675.495,1180.94 674,1195C673.533,1199.39 674.358,1207.83 669.649,1207.41C661.68,1206.69 650.029,1205.98 643.99,1200.21C641.539,1197.88 647.636,1188.59 648.847,1184.35C655.164,1162.24 662.697,1102.2 669,1071Z" style="fill:rgb(1,0,0);stroke:rgb(255,242,243);stroke-width:3.05px;"/>
        </g>
    </g>
    <g transform="matrix(1.12525,-0.0796452,0.0787512,1.13605,-461.711,-815.695)">
        <path d="M989,1419.39C996.607,1386.84 1000.85,1366.76 1006.25,1346.39C1010.42,1330.68 1015.96,1315.46 1023.43,1293.96C1025.66,1287.56 1027.84,1280.54 1030.26,1272.84C1033.24,1263.33 1036.28,1252.69 1040.02,1240.78C1042.99,1230.67 1045.73,1221.79 1047.76,1213.13C1050.02,1203.46 1051.87,1194.24 1052.54,1184.16C1053.62,1168.09 1052.16,1150.75 1048.69,1126.44C1045.23,1150.04 1040.92,1166.3 1036.45,1181.31C1034.3,1188.52 1032.17,1195.23 1029.76,1202.1C1026.34,1211.85 1022.58,1221.78 1017.98,1233.33C1011.63,1250.66 1006.11,1265.08 1002.31,1277.86C1000.35,1284.43 998.908,1290.57 997.658,1296.33C995.378,1306.83 993.907,1316.01 992.818,1324.71C989.199,1353.61 990.071,1375.74 989,1419.39Z" style="fill:rgb(227,201,62);"/>
    </g>
</svg>
